<?xml version="1.0" standalone="no"?>
<!DOCTYPE svg PUBLIC "-//W3C//DTD SVG 20010904//EN"
 "http://www.w3.org/TR/2001/REC-SVG-20010904/DTD/svg10.dtd">
<svg version="1.0" xmlns="http://www.w3.org/2000/svg"
 width="512.000000pt" height="512.000000pt" viewBox="0 0 512.000000 512.000000"
 preserveAspectRatio="xMidYMid meet">

<g transform="translate(0.000000,512.000000) scale(0.100000,-0.100000)"
fill="#000000" stroke="none">
<path d="M3442 4353 c-23 -21 -165 -440 -160 -474 2 -12 15 -31 30 -42 23 -17
32 -19 52 -9 42 19 583 429 590 447 11 29 7 45 -19 70 l-24 25 -224 0 c-200 0
-227 -2 -245 -17z m172 -175 c-38 -28 -83 -62 -101 -76 l-32 -24 25 76 26 76
75 0 76 0 -69 -52z"/>
<path d="M2886 4208 c-33 -30 -534 -597 -553 -625 -32 -48 21 -117 74 -97 13
5 153 153 309 329 242 272 284 325 284 351 0 60 -66 85 -114 42z"/>
<path d="M1246 4198 c-24 -33 -19 -61 14 -93 17 -16 30 -33 30 -38 0 -5 -13
-25 -30 -44 -35 -39 -38 -75 -10 -103 29 -29 71 -26 105 10 16 17 34 30 40 30
6 0 24 -13 40 -30 44 -46 102 -37 120 20 7 22 -14 67 -44 94 l-21 19 35 38
c39 43 43 64 19 97 -23 33 -75 30 -116 -7 l-33 -29 -33 29 c-41 37 -93 40
-116 7z"/>
<path d="M3540 3812 l-315 -148 -5 102 c-4 82 -9 106 -24 123 -42 47 -46 44
-558 -374 l-483 -396 -5 141 c-4 125 -7 143 -24 156 -25 18 -40 18 -74 0 -44
-23 -1144 -1134 -1196 -1208 -130 -185 -192 -419 -167 -635 69 -591 651 -960
1214 -769 192 66 215 84 690 556 235 233 430 435 433 447 9 35 -3 68 -28 80
-13 5 -92 23 -175 38 -84 16 -153 32 -153 36 0 4 120 137 266 295 146 159 269
299 274 312 13 30 -6 68 -39 81 -14 5 -52 15 -84 21 -35 7 -55 16 -51 22 4 6
178 234 388 507 210 273 412 536 449 584 37 49 67 98 67 111 0 27 -39 66 -66
66 -10 0 -161 -67 -334 -148z m-1106 -1094 l-27 -66 -63 -16 c-89 -23 -94 -22
-94 17 0 31 4 34 103 84 56 28 103 50 104 49 2 -1 -9 -32 -23 -68z m-769 -548
c-50 -150 -55 -188 -25 -215 20 -18 25 -18 147 -2 69 10 127 16 129 14 2 -2
-21 -77 -51 -168 -31 -90 -54 -175 -53 -188 2 -13 15 -33 29 -43 26 -20 27
-20 150 5 68 14 125 24 126 23 2 -1 -68 -77 -154 -169 -176 -189 -229 -228
-341 -253 -60 -13 -86 -15 -138 -6 -278 46 -432 329 -314 579 27 60 60 97 283
321 138 139 253 249 254 245 2 -5 -17 -69 -42 -143z"/>
<path d="M1892 3907 c-29 -31 -28 -72 3 -102 30 -30 64 -32 99 -4 33 26 36 79
6 109 -28 28 -81 26 -108 -3z"/>
<path d="M3757 3368 c-19 -24 -118 -155 -221 -292 l-186 -249 0 -168 c0 -162
1 -168 22 -183 12 -9 33 -16 45 -16 13 0 86 47 173 113 111 83 152 120 160
142 14 45 140 616 140 637 0 27 -37 58 -69 58 -23 0 -38 -10 -64 -42z m-103
-473 l-28 -126 -68 -50 c-37 -27 -70 -49 -73 -49 -3 0 -5 23 -5 51 0 50 4 57
96 181 53 71 99 127 101 124 2 -2 -8 -61 -23 -131z"/>
<path d="M4275 3270 c-36 -15 -373 -363 -380 -392 -5 -21 -1 -33 19 -52 14
-15 35 -26 48 -26 30 0 408 376 408 407 0 44 -54 80 -95 63z"/>
<path d="M3648 2480 c-315 -159 -358 -183 -364 -207 -9 -33 59 -246 87 -274
40 -40 53 -32 389 267 177 157 325 295 329 307 15 40 -17 87 -58 86 -14 0
-187 -81 -383 -179z m-118 -237 c-67 -60 -90 -77 -90 -64 0 5 -3 16 -6 25 -4
11 13 24 63 50 37 19 72 35 77 36 4 0 -16 -21 -44 -47z"/>
<path d="M4139 1887 c-124 -66 -145 -235 -40 -330 146 -132 376 5 330 195 -30
128 -175 195 -290 135z m135 -128 c50 -39 22 -119 -42 -119 -69 0 -91 98 -28
128 31 15 40 14 70 -9z"/>
<path d="M3385 1418 c-46 -26 -47 -73 -4 -123 l32 -36 -32 -32 c-38 -41 -42
-88 -9 -111 34 -24 63 -19 103 15 l35 31 35 -31 c40 -34 69 -39 103 -15 33 23
29 70 -9 111 l-32 32 32 36 c44 51 42 98 -6 123 -27 15 -49 7 -90 -31 l-32
-30 -41 36 c-43 40 -54 43 -85 25z"/>
</g>
</svg>
